# Made in Blockbench 4.8.1
mtllib core_glow.mtl

o cube
v -0.02032964241032964 1.0478519645685074 0.540625
v -0.02032964241032964 1.0478519645685074 0.459375
v 0.0370728724444338 0.9092700346918143 0.540625
v 0.0370728724444338 0.9092700346918143 0.459375
v 0.71875 1.171875 0.540625
v 0.71875 1.171875 0.459375
v 0.7211417714522816 1.0098507529218044 0.540625
v 0.7211417714522816 1.0098507529218044 0.459375
v 0.2812500000000001 1.1718749999999998 0.540625
v 0.2812500000000001 1.1718749999999998 0.459375
v 1.0210432717930362 1.0466560788423664 0.540625
v 1.0210432717930362 1.0466560788423664 0.459375
v 0.9646314611119046 0.9104659204179552 0.540625
v 0.9646314611119046 0.9104659204179552 0.459375
v 0.40625 1.015625 0.540625
v 0.40625 1.015625 0.459375
v 0.40625 0.8281249999999999 0.540625
v 0.40625 0.8281249999999999 0.459375
v 0.3125 1.015625 0.459375
v 0.3125 0.8281249999999999 0.540625
v 0.3125 0.8281249999999999 0.459375
v 0.6875 1.015625 0.540625
v 0.6875 1.015625 0.459375
v 0.6875 0.8281249999999999 0.540625
v 0.6875 0.8281249999999999 0.459375
v 0.59375 1.015625 0.540625
v 0.59375 1.015625 0.459375
v 0.59375 0.828125 0.540625
v 0.59375 0.828125 0.459375
v 0.3125 1.015625 0.540625
v 0.28364177145228187 1.0098507529218046 0.540625
v 0.28364177145228187 1.0098507529218046 0.459375
vt 0.125 0.8125
vt 0.125 0.9375
vt 0.0625 0.9375
vt 0.0625 0.8125
vt 0.4375 0.875
vt 0.4375 0.9375
vt 0.125 0.9375
vt 0.125 0.875
vt 0.5625 0.5625
vt 0.5625 0.625
vt 0.25 0.625
vt 0.25 0.5625
vt 0.875 0.5625
vt 0.875 0.6875
vt 0.5625 0.6875
vt 0.5625 0.5625
vt 0.9375 0.5
vt 0.9375 0.625
vt 0.625 0.625
vt 0.625 0.5
vt 0.625 0.5625
vt 0.625 0.625
vt 0.1875 0.625
vt 0.1875 0.5625
vt 0.6875 0.625
vt 0.6875 0.6875
vt 0.25 0.6875
vt 0.25 0.625
vt 0.5 0.4375
vt 0.5 0.5625
vt 0.0625 0.5625
vt 0.0625 0.4375
vt 0.6875 0.5
vt 0.6875 0.625
vt 0.25 0.625
vt 0.25 0.5
vt 0.5 0.5625
vt 0.5 0.6875
vt 0.4375 0.6875
vt 0.4375 0.5625
vt 0.5625 0.5625
vt 0.5625 0.625
vt 0.25 0.625
vt 0.25 0.5625
vt 0.5625 0.625
vt 0.5625 0.6875
vt 0.25 0.6875
vt 0.25 0.625
vt 0.75 0.4375
vt 0.75 0.5625
vt 0.4375 0.5625
vt 0.4375 0.4375
vt 0.5625 0.6875
vt 0.5625 0.8125
vt 0.25 0.8125
vt 0.25 0.6875
vt 0.4375 0.5625
vt 0.4375 0.75
vt 0.375 0.75
vt 0.375 0.5625
vt 0.3125 0.5625
vt 0.3125 0.75
vt 0.25 0.75
vt 0.25 0.5625
vt 0.1875 0.8125
vt 0.1875 0.875
vt 0.125 0.875
vt 0.125 0.8125
vt 0.4375 0.375
vt 0.4375 0.5625
vt 0.375 0.5625
vt 0.375 0.375
vt 0.25 0.4375
vt 0.25 0.625
vt 0.1875 0.625
vt 0.1875 0.4375
vt 0.375 0.25
vt 0.375 0.4375
vt 0.3125 0.4375
vt 0.3125 0.25
vt 0.125 0.75
vt 0.125 0.9375
vt 0.0625 0.9375
vt 0.0625 0.75
vt 0.1875 0.8125
vt 0.1875 0.875
vt 0.125 0.875
vt 0.125 0.8125
vt 0.4375 0.5
vt 0.4375 0.6875
vt 0.375 0.6875
vt 0.375 0.5
vt 0.6875 0.5
vt 0.6875 0.6875
vt 0.625 0.6875
vt 0.625 0.5
vn -0.9238795325112867 -0.3826834323650897 0
vn -0.38033857698142776 0.9248473208371978 0
vn 0.37770498184036055 -0.9259259941771658 0
vn 0 0 1
vn 0 0 -1
vn 0 1 0
vn -1.6653345369377353e-16 -1 0
vn 0 0 1
vn 0 0 -1
vn 0.9238795325112867 -0.3826834323650901 0
vn 0.3826963403402068 0.9238741857472871 0
vn -0.3779011880419025 -0.9258459332289142 0
vn 0 0 1
vn 0 0 -1
vn 1 -1.1102230246251565e-16 0
vn -1 5.551115123125783e-17 0
vn 6.661338147750939e-16 -1 0
vn 0 0 1
vn 0 0 -1
vn 1 -4.996003610813204e-16 0
vn -1 -5.551115123125783e-17 0
vn -7.771561172376096e-16 -1 0
vn 0 0 1
vn 0 0 -1
usemtl m_adfad342-ebe8-998a-2bbd-80c28706ceac
f 3/1/1 1/2/1 2/3/1 4/4/1
f 9/5/2 10/6/2 2/7/2 1/8/2
f 32/9/3 31/10/3 3/11/3 4/12/3
f 31/13/4 9/14/4 1/15/4 3/16/4
f 4/17/5 2/18/5 10/19/5 32/20/5
f 5/21/6 6/22/6 10/23/6 9/24/6
f 8/25/7 7/26/7 31/27/7 32/28/7
f 7/29/8 5/30/8 9/31/8 31/32/8
f 32/33/9 10/34/9 6/35/9 8/36/9
f 14/37/10 12/38/10 11/39/10 13/40/10
f 11/41/11 12/42/11 6/43/11 5/44/11
f 14/45/12 13/46/12 7/47/12 8/48/12
f 13/49/13 11/50/13 5/51/13 7/52/13
f 8/53/14 6/54/14 12/55/14 14/56/14
f 18/57/15 16/58/15 15/59/15 17/60/15
f 20/61/16 30/62/16 19/63/16 21/64/16
f 18/65/17 17/66/17 20/67/17 21/68/17
f 17/69/18 15/70/18 30/71/18 20/72/18
f 21/73/19 19/74/19 16/75/19 18/76/19
f 25/77/20 23/78/20 22/79/20 24/80/20
f 28/81/21 26/82/21 27/83/21 29/84/21
f 25/85/22 24/86/22 28/87/22 29/88/22
f 24/89/23 22/90/23 26/91/23 28/92/23
f 29/93/24 27/94/24 23/95/24 25/96/24